<svg width="40" height="40" viewBox="0 0 40 40" fill="none" xmlns="http://www.w3.org/2000/svg">
<path d="M22.3333 29.0333H18.15C15.4167 29.0333 13.2 26.7333 13.2 23.9C13.2 23.2167 13.7667 22.65 14.45 22.65C15.1333 22.65 15.7 23.2167 15.7 23.9C15.7 25.35 16.8 26.5333 18.15 26.5333H22.3333C23.4167 26.5333 24.3167 25.5667 24.3167 24.4C24.3167 22.95 23.8 22.6667 22.95 22.3667L16.2333 20C14.9333 19.55 13.1833 18.5833 13.1833 15.6C13.1833 13.0333 15.2 10.9667 17.6667 10.9667H21.85C24.5833 10.9667 26.8 13.2667 26.8 16.1C26.8 16.7833 26.2333 17.35 25.55 17.35C24.8667 17.35 24.3 16.7833 24.3 16.1C24.3 14.65 23.2 13.4667 21.85 13.4667H17.6667C16.5834 13.4667 15.6833 14.4333 15.6833 15.6C15.6833 17.05 16.2 17.3333 17.05 17.6333L23.7667 20C25.0667 20.45 26.8167 21.4167 26.8167 24.4C26.8 26.95 24.8 29.0333 22.3333 29.0333Z" fill="#ED196B"/>
<path d="M20 31.25C19.3167 31.25 18.75 30.6833 18.75 30V10C18.75 9.31667 19.3167 8.75 20 8.75C20.6833 8.75 21.25 9.31667 21.25 10V30C21.25 30.6833 20.6833 31.25 20 31.25Z" fill="#ED196B"/>
<path d="M20 37.9167C10.1166 37.9167 2.08331 29.8833 2.08331 20C2.08331 10.1167 10.1166 2.08334 20 2.08334C29.8833 2.08334 37.9166 10.1167 37.9166 20C37.9166 29.8833 29.8833 37.9167 20 37.9167ZM20 4.58334C11.5 4.58334 4.58331 11.5 4.58331 20C4.58331 28.5 11.5 35.4167 20 35.4167C28.5 35.4167 35.4166 28.5 35.4166 20C35.4166 11.5 28.5 4.58334 20 4.58334Z" fill="#ED196B"/>
</svg>