<svg width="40" height="40" viewBox="0 0 40 40" fill="none" xmlns="http://www.w3.org/2000/svg">
<path d="M15.8003 34.4833C14.967 34.4833 14.3836 34.2 14.0336 33.9333C13.367 33.45 12.3336 32.2 12.9836 29.4L13.9336 25.3C14.0169 24.95 13.8336 24.3167 13.5836 24.05L10.2669 20.7333C8.51694 18.9833 8.66693 17.4667 8.90026 16.7167C9.1336 15.9667 9.90026 14.65 12.3336 14.2333L16.5836 13.5333C16.9003 13.4833 17.4169 13.1 17.5503 12.8167L19.9003 8.11666C21.0336 5.84999 22.5336 5.51666 23.3336 5.51666C24.1336 5.51666 25.6336 5.84999 26.7669 8.11666L29.1169 12.8167C29.2669 13.1 29.7669 13.4833 30.0836 13.5333L34.3336 14.2333C36.7669 14.6333 37.5336 15.9667 37.7669 16.7167C38.0003 17.4667 38.1503 18.9833 36.4003 20.7333L33.0836 24.05C32.8336 24.3 32.6503 24.95 32.7336 25.3L33.6836 29.4C34.3336 32.2167 33.3002 33.45 32.6336 33.9333C31.9669 34.4167 30.4836 35.0333 27.9836 33.55L24.0003 31.1833C23.6669 30.9833 22.9669 30.9833 22.6336 31.1833L18.6503 33.55C17.5003 34.25 16.5336 34.4833 15.8003 34.4833ZM23.3336 8.01666C23.0669 8.01666 22.5836 8.33332 22.1336 9.23332L19.7836 13.9333C19.2836 14.95 18.1003 15.8167 16.9836 16L12.7336 16.7C11.7836 16.8667 11.3503 17.2167 11.267 17.4833C11.1836 17.75 11.3336 18.2833 12.0169 18.9667L15.3336 22.2833C16.1836 23.1333 16.6336 24.6833 16.3669 25.85L15.4169 29.95C15.1336 31.1333 15.3169 31.7667 15.5002 31.9167C15.6836 32.05 16.3503 32.0333 17.3836 31.4L21.3836 29.0333C22.5002 28.3667 24.1836 28.3667 25.2836 29.0333L29.2669 31.4C30.3169 32.0167 30.9836 32.05 31.167 31.9167C31.3503 31.7833 31.5336 31.15 31.2503 29.95L30.3003 25.85C30.0336 24.6667 30.4669 23.1333 31.3336 22.2833L34.6503 18.9667C35.3336 18.2833 35.4836 17.7333 35.4003 17.4833C35.3169 17.2333 34.8836 16.8667 33.9336 16.7L29.6836 16C28.5669 15.8167 27.3836 14.95 26.8836 13.9333L24.5336 9.23332C24.0836 8.33332 23.6003 8.01666 23.3336 8.01666Z" fill="#ED196B"/>
<path d="M13.3334 9.58333H3.33337C2.65004 9.58333 2.08337 9.01666 2.08337 8.33333C2.08337 7.64999 2.65004 7.08333 3.33337 7.08333H13.3334C14.0167 7.08333 14.5834 7.64999 14.5834 8.33333C14.5834 9.01666 14.0167 9.58333 13.3334 9.58333Z" fill="#ED196B"/>
<path d="M8.33337 32.9167H3.33337C2.65004 32.9167 2.08337 32.35 2.08337 31.6667C2.08337 30.9833 2.65004 30.4167 3.33337 30.4167H8.33337C9.01671 30.4167 9.58337 30.9833 9.58337 31.6667C9.58337 32.35 9.01671 32.9167 8.33337 32.9167Z" fill="#ED196B"/>
<path d="M5.00004 21.25H3.33337C2.65004 21.25 2.08337 20.6833 2.08337 20C2.08337 19.3167 2.65004 18.75 3.33337 18.75H5.00004C5.68337 18.75 6.25004 19.3167 6.25004 20C6.25004 20.6833 5.68337 21.25 5.00004 21.25Z" fill="#FF4868"/>
</svg>