<svg width="40" height="40" viewBox="0 0 40 40" fill="none" xmlns="http://www.w3.org/2000/svg">
<path d="M15.8004 34.4833C14.9671 34.4833 14.3837 34.2 14.0337 33.9333C13.3671 33.45 12.3337 32.2 12.9837 29.4L13.9337 25.3C14.017 24.95 13.8337 24.3167 13.5837 24.05L10.2671 20.7333C8.51706 18.9833 8.66705 17.4667 8.90038 16.7167C9.13372 15.9667 9.90038 14.65 12.3337 14.2333L16.5837 13.5333C16.9004 13.4833 17.4171 13.1 17.5504 12.8167L19.9004 8.11666C21.0337 5.84999 22.5337 5.51666 23.3337 5.51666C24.1337 5.51666 25.6337 5.84999 26.7671 8.11666L29.1171 12.8167C29.2671 13.1 29.767 13.4833 30.0837 13.5333L34.3337 14.2333C36.7671 14.6333 37.5337 15.9667 37.7671 16.7167C38.0004 17.4667 38.1504 18.9833 36.4004 20.7333L33.0837 24.05C32.8337 24.3 32.6504 24.95 32.7337 25.3L33.6837 29.4C34.3337 32.2167 33.3004 33.45 32.6337 33.9333C31.967 34.4167 30.4837 35.0333 27.9837 33.55L24.0004 31.1833C23.667 30.9833 22.967 30.9833 22.6337 31.1833L18.6504 33.55C17.5004 34.25 16.5337 34.4833 15.8004 34.4833ZM23.3337 8.01666C23.0671 8.01666 22.5837 8.33332 22.1337 9.23332L19.7837 13.9333C19.2837 14.95 18.1004 15.8167 16.9837 16L12.7337 16.7C11.7837 16.8667 11.3504 17.2167 11.2671 17.4833C11.1837 17.75 11.3337 18.2833 12.017 18.9667L15.3337 22.2833C16.1837 23.1333 16.6337 24.6833 16.3671 25.85L15.4171 29.95C15.1337 31.1333 15.317 31.7667 15.5004 31.9167C15.6837 32.05 16.3504 32.0333 17.3837 31.4L21.3837 29.0333C22.5004 28.3667 24.1837 28.3667 25.2837 29.0333L29.2671 31.4C30.3171 32.0167 30.9837 32.05 31.1671 31.9167C31.3504 31.7833 31.5337 31.15 31.2504 29.95L30.3004 25.85C30.0337 24.6667 30.467 23.1333 31.3337 22.2833L34.6504 18.9667C35.3337 18.2833 35.4837 17.7333 35.4004 17.4833C35.317 17.2333 34.8837 16.8667 33.9337 16.7L29.6837 16C28.5671 15.8167 27.3837 14.95 26.8837 13.9333L24.5337 9.23332C24.0837 8.33332 23.6004 8.01666 23.3337 8.01666Z" fill="white"/>
<path d="M13.3333 9.58333H3.33325C2.64992 9.58333 2.08325 9.01666 2.08325 8.33333C2.08325 7.64999 2.64992 7.08333 3.33325 7.08333H13.3333C14.0166 7.08333 14.5833 7.64999 14.5833 8.33333C14.5833 9.01666 14.0166 9.58333 13.3333 9.58333Z" fill="white"/>
<path d="M8.33325 32.9167H3.33325C2.64992 32.9167 2.08325 32.35 2.08325 31.6667C2.08325 30.9833 2.64992 30.4167 3.33325 30.4167H8.33325C9.01659 30.4167 9.58325 30.9833 9.58325 31.6667C9.58325 32.35 9.01659 32.9167 8.33325 32.9167Z" fill="white"/>
<path d="M4.99992 21.25H3.33325C2.64992 21.25 2.08325 20.6833 2.08325 20C2.08325 19.3167 2.64992 18.75 3.33325 18.75H4.99992C5.68325 18.75 6.24992 19.3167 6.24992 20C6.24992 20.6833 5.68325 21.25 4.99992 21.25Z" fill="white"/>
</svg>