<svg width="20" height="20" viewBox="0 0 20 20" fill="none" xmlns="http://www.w3.org/2000/svg">
    <path d="M12.5 18.9583H7.5C2.975 18.9583 1.04167 17.025 1.04167 12.5V7.49996C1.04167 2.97496 2.975 1.04163 7.5 1.04163H12.5C17.025 1.04163 18.9583 2.97496 18.9583 7.49996V12.5C18.9583 17.025 17.025 18.9583 12.5 18.9583ZM7.5 2.29163C3.65833 2.29163 2.29167 3.65829 2.29167 7.49996V12.5C2.29167 16.3416 3.65833 17.7083 7.5 17.7083H12.5C16.3417 17.7083 17.7083 16.3416 17.7083 12.5V7.49996C17.7083 3.65829 16.3417 2.29163 12.5 2.29163H7.5Z" fill="#ED196B"/>
    <path d="M8.81666 12.9833C8.65 12.9833 8.49166 12.9166 8.375 12.8L6.01666 10.4416C5.775 10.2 5.775 9.79996 6.01666 9.55829C6.25833 9.31663 6.65833 9.31663 6.9 9.55829L8.81666 11.475L13.1 7.19163C13.3417 6.94996 13.7417 6.94996 13.9833 7.19163C14.225 7.43329 14.225 7.83329 13.9833 8.07496L9.25833 12.8C9.14166 12.9166 8.98333 12.9833 8.81666 12.9833Z" fill="#ED196B"/>
</svg>