<svg width="32" height="32" viewBox="0 0 32 32" fill="none" xmlns="http://www.w3.org/2000/svg">
<path fill-rule="evenodd" clip-rule="evenodd" d="M4 3.87879C4 3.20935 4.48842 2.66666 5.09091 2.66666H26.9091C27.5116 2.66666 28 3.20935 28 3.87879V25.697C28 26.3664 27.5116 26.9091 26.9091 26.9091H25.8182V28.1212C25.8182 28.7906 25.3298 29.3333 24.7273 29.3333H20.3636C19.7611 29.3333 19.2727 28.7906 19.2727 28.1212V26.9091H12.7273V28.1212C12.7273 28.7906 12.2389 29.3333 11.6364 29.3333H7.27273C6.67023 29.3333 6.18182 28.7906 6.18182 28.1212V26.9091H5.09091C4.48842 26.9091 4 26.3664 4 25.697V3.87879ZM25.8182 24.4848V19.6364H6.18182V24.4848H25.8182ZM6.18182 17.2121H25.8182V8.72727H6.18182V17.2121ZM6.18182 6.30303H25.8182V5.09091H6.18182V6.30303ZM13.2727 11.1515C13.2727 10.4821 13.7611 9.93939 14.3636 9.93939H17.6364C18.2389 9.93939 18.7273 10.4821 18.7273 11.1515C18.7273 11.8209 18.2389 12.3636 17.6364 12.3636H14.3636C13.7611 12.3636 13.2727 11.8209 13.2727 11.1515ZM7.27273 22.0606C7.27273 21.3912 7.76114 20.8485 8.36364 20.8485H9.45455C10.057 20.8485 10.5455 21.3912 10.5455 22.0606C10.5455 22.73 10.057 23.2727 9.45455 23.2727H8.36364C7.76114 23.2727 7.27273 22.73 7.27273 22.0606ZM12.1818 22.0606C12.1818 21.3912 12.6702 20.8485 13.2727 20.8485H18.7273C19.3298 20.8485 19.8182 21.3912 19.8182 22.0606C19.8182 22.73 19.3298 23.2727 18.7273 23.2727H13.2727C12.6702 23.2727 12.1818 22.73 12.1818 22.0606ZM21.4545 22.0606C21.4545 21.3912 21.943 20.8485 22.5455 20.8485H23.6364C24.2389 20.8485 24.7273 21.3912 24.7273 22.0606C24.7273 22.73 24.2389 23.2727 23.6364 23.2727H22.5455C21.943 23.2727 21.4545 22.73 21.4545 22.0606Z" fill="#383F47"/>
</svg>