<svg width="40" height="40" viewBox="0 0 40 40" fill="none" xmlns="http://www.w3.org/2000/svg">
<path d="M20.0001 37.9333C18.1834 37.9333 16.3834 37.4 14.9667 36.35L7.80008 31C5.90008 29.5833 4.41675 26.6167 4.41675 24.2667V11.8667C4.41675 9.29999 6.30008 6.56666 8.71675 5.66666L17.0334 2.54999C18.6834 1.93333 21.2834 1.93333 22.9334 2.54999L31.2501 5.66666C33.6668 6.56666 35.5501 9.29999 35.5501 11.8667V24.25C35.5501 26.6167 34.0668 29.5667 32.1668 30.9833L25.0001 36.3333C23.6168 37.4 21.8168 37.9333 20.0001 37.9333ZM17.9168 4.89999L9.60008 8.01666C8.18342 8.54999 6.93341 10.35 6.93341 11.8833V24.2667C6.93341 25.85 8.05008 28.0667 9.30008 29L16.4667 34.35C18.3834 35.7833 21.6167 35.7833 23.5501 34.35L30.7168 29C31.9834 28.05 33.0834 25.85 33.0834 24.2667V11.8667C33.0834 10.35 31.8334 8.54999 30.4168 7.99999L22.1001 4.88333C20.9668 4.48333 19.0334 4.48333 17.9168 4.89999Z" fill="white"/>
<path d="M17.7666 23.7167C17.4499 23.7167 17.1332 23.6 16.8832 23.35L14.1999 20.6667C13.7166 20.1833 13.7166 19.3833 14.1999 18.9C14.6832 18.4167 15.4832 18.4167 15.9666 18.9L17.7666 20.7L24.0499 14.4167C24.5332 13.9333 25.3332 13.9333 25.8166 14.4167C26.2999 14.9 26.2999 15.7 25.8166 16.1833L18.6499 23.35C18.3999 23.6 18.0832 23.7167 17.7666 23.7167Z" fill="white"/>
</svg>