<svg width="32" height="32" viewBox="0 0 32 32" fill="none" xmlns="http://www.w3.org/2000/svg">
<path d="M25.8111 20.5612C28.8207 21.464 30.6666 22.7733 30.6666 24.6667C30.6666 26.9801 27.604 28.6271 23.0561 29.4349L22.3059 29.5585C22.0516 29.5972 21.7933 29.6335 21.5311 29.6672L20.7332 29.7609C20.3288 29.804 19.9163 29.8413 19.4965 29.8729L18.6476 29.9283L17.7809 29.968C17.635 29.9733 17.4885 29.978 17.3413 29.982L16.4506 29.998H15.5492L14.6586 29.982C14.5114 29.978 14.3648 29.9733 14.219 29.968L13.3522 29.9283L12.5033 29.8729C12.0835 29.8413 11.671 29.804 11.2666 29.7609L10.4687 29.6672C10.3376 29.6504 10.2075 29.6329 10.0784 29.6147L9.31566 29.4986C4.56365 28.7157 1.33325 27.0426 1.33325 24.6667C1.33325 22.7733 3.17916 21.464 6.18869 20.5612C6.89401 20.3496 7.63732 20.7498 7.84893 21.4551C8.06052 22.1605 7.66028 22.9038 6.95496 23.1154C5.86724 23.4417 5.02161 23.8172 4.48576 24.1973C4.30071 24.3285 4.17926 24.4366 4.10406 24.5164L4.02379 24.6145C4.00715 24.6398 3.99992 24.6574 3.99992 24.6667C3.99992 24.9385 4.36847 25.25 5.03017 25.5619L5.38511 25.7177C5.51133 25.7696 5.64535 25.8212 5.78681 25.8726L6.23317 26.0253C6.38918 26.0757 6.55228 26.1256 6.72212 26.1748L7.25155 26.3201C7.34304 26.3439 7.43614 26.3674 7.53079 26.3907L8.11701 26.5275C8.31841 26.572 8.52568 26.6154 8.73848 26.6573L9.3931 26.7791L10.0788 26.8916C10.1955 26.9095 10.3135 26.927 10.4326 26.9441L11.1609 27.0408L11.9151 27.1257L12.693 27.1975C12.956 27.2192 13.2226 27.2385 13.4925 27.2553L14.3116 27.2979L15.1481 27.3243C15.2888 27.3273 15.4302 27.3295 15.5722 27.3311L15.9999 27.3333C16.2862 27.3333 16.5703 27.3303 16.8518 27.3243L17.6883 27.2979L18.5073 27.2553C18.7772 27.2385 19.0438 27.2192 19.3068 27.1975L20.0847 27.1257L20.8389 27.0408L21.5672 26.9441L22.2677 26.8365C22.3819 26.8178 22.495 26.7986 22.6067 26.7791L23.2614 26.6573L23.5764 26.5934L24.1805 26.4599C24.3759 26.4143 24.5653 26.3676 24.7483 26.3201L25.2777 26.1748C25.3626 26.1502 25.4459 26.1254 25.5274 26.1005L25.9953 25.9492C26.2185 25.8729 26.4254 25.7955 26.6147 25.7177L26.9697 25.5619C27.6314 25.25 27.9999 24.9385 27.9999 24.6667C27.9999 24.6574 27.9927 24.6398 27.976 24.6145L27.8958 24.5165C27.8206 24.4366 27.6991 24.3285 27.5141 24.1973C26.9782 23.8172 26.1326 23.4417 25.0448 23.1154C24.3395 22.9038 23.9393 22.1605 24.1509 21.4551C24.3625 20.7498 25.1058 20.3496 25.8111 20.5612ZM15.9999 1.33334C21.5155 1.33334 25.9999 5.70802 25.9999 11.1212C25.9999 14.4069 24.217 17.5929 21.2905 20.611C20.2963 21.6363 19.2352 22.5703 18.1738 23.3976L17.7201 23.745L17.1495 24.162L16.7293 24.4495C16.2862 24.7391 15.7137 24.7391 15.2705 24.4495C15.233 24.4249 15.1922 24.3979 15.1485 24.3684L14.6758 24.0371L14.2797 23.745L13.8261 23.3976C12.7646 22.5703 11.7036 21.6363 10.7094 20.611C7.78288 17.5929 5.99992 14.4069 5.99992 11.1212C5.99992 5.70802 10.4844 1.33334 15.9999 1.33334ZM15.9999 4C11.9425 4 8.66658 7.19577 8.66658 11.1212C8.66658 13.5651 10.1336 16.1865 12.6238 18.7547C13.5254 19.6845 14.4956 20.5385 15.4654 21.2944C15.6348 21.4264 15.7979 21.5505 15.9536 21.6663L15.9999 21.6987L16.1644 21.5779L16.5344 21.2944C17.5042 20.5385 18.4744 19.6845 19.376 18.7547C21.8662 16.1865 23.3333 13.5651 23.3333 11.1212C23.3333 7.19577 20.0573 4 15.9999 4ZM15.9999 6.66667C18.5772 6.66667 20.6666 8.75602 20.6666 11.3333C20.6666 13.9106 18.5772 16 15.9999 16C13.4226 16 11.3333 13.9106 11.3333 11.3333C11.3333 8.75602 13.4226 6.66667 15.9999 6.66667ZM15.9999 9.33334C14.8954 9.33334 13.9999 10.2288 13.9999 11.3333C13.9999 12.4379 14.8954 13.3333 15.9999 13.3333C17.1045 13.3333 17.9999 12.4379 17.9999 11.3333C17.9999 10.2288 17.1045 9.33334 15.9999 9.33334Z" fill="#383F47"/>
<path fill-rule="evenodd" clip-rule="evenodd" d="M16.0001 4C11.9427 4 8.66675 7.19577 8.66675 11.1212C8.66675 13.5651 10.1338 16.1865 12.624 18.7547C13.5256 19.6845 14.4958 20.5385 15.4656 21.2944C15.635 21.4264 15.798 21.5505 15.9538 21.6663L16.0001 21.6987L16.1646 21.5779L16.5346 21.2944C17.5044 20.5385 18.4746 19.6845 19.3762 18.7547C21.8664 16.1865 23.3334 13.5651 23.3334 11.1212C23.3334 7.19577 20.0575 4 16.0001 4ZM20.6667 11.3333C20.6667 8.75602 18.5774 6.66667 16.0001 6.66667C13.4228 6.66667 11.3334 8.75602 11.3334 11.3333C11.3334 13.9106 13.4228 16 16.0001 16C18.5774 16 20.6667 13.9106 20.6667 11.3333Z" fill="#FBD1E1"/>
<path d="M16.0001 9.33333C14.8955 9.33333 14.0001 10.2288 14.0001 11.3333C14.0001 12.4379 14.8955 13.3333 16.0001 13.3333C17.1046 13.3333 18.0001 12.4379 18.0001 11.3333C18.0001 10.2288 17.1046 9.33333 16.0001 9.33333Z" fill="#FBD1E1"/>
</svg>