<svg width="32" height="32" viewBox="0 0 32 32" fill="none" xmlns="http://www.w3.org/2000/svg">
<path fill-rule="evenodd" clip-rule="evenodd" d="M10.6667 1.33334C11.403 1.33334 12 1.93029 12 2.66667V3.33334H20V2.66667C20 1.93029 20.597 1.33334 21.3333 1.33334C22.0697 1.33334 22.6667 1.93029 22.6667 2.66667V3.33334H27.3333C28.8061 3.33334 30 4.52726 30 6V26.6667C30 28.1395 28.8061 29.3333 27.3333 29.3333H4.66667C3.19392 29.3333 2 28.1395 2 26.6667V6C2 4.52724 3.19391 3.33334 4.66667 3.33334H9.33333V2.66667C9.33333 1.93029 9.93029 1.33334 10.6667 1.33334ZM9.33333 6H4.66667V11.3333H27.3333V6H22.6667V8C22.6667 8.73638 22.0697 9.33334 21.3333 9.33334C20.597 9.33334 20 8.73638 20 8V6H12V8C12 8.73638 11.403 9.33334 10.6667 9.33334C9.93029 9.33334 9.33333 8.73638 9.33333 8V6ZM27.3333 14H4.66667V26.6667H27.3333V14ZM8 17.3333C8 16.597 8.59695 16 9.33333 16H13.3333C14.0697 16 14.6667 16.597 14.6667 17.3333C14.6667 18.0697 14.0697 18.6667 13.3333 18.6667H9.33333C8.59695 18.6667 8 18.0697 8 17.3333ZM17.3333 17.3333C17.3333 16.597 17.9303 16 18.6667 16H22.6667C23.403 16 24 16.597 24 17.3333C24 18.0697 23.403 18.6667 22.6667 18.6667H18.6667C17.9303 18.6667 17.3333 18.0697 17.3333 17.3333ZM8 22.6667C8 21.9303 8.59695 21.3333 9.33333 21.3333H13.3333C14.0697 21.3333 14.6667 21.9303 14.6667 22.6667C14.6667 23.403 14.0697 24 13.3333 24H9.33333C8.59695 24 8 23.403 8 22.6667ZM17.3333 22.6667C17.3333 21.9303 17.9303 21.3333 18.6667 21.3333H22.6667C23.403 21.3333 24 21.9303 24 22.6667C24 23.403 23.403 24 22.6667 24H18.6667C17.9303 24 17.3333 23.403 17.3333 22.6667Z" fill="#383F47"/>
</svg>